name analog
datacolumns 19
datarows 19
range 0.291 0.3
endheader
time	ground_force_vx	ground_force_vy	ground_force_vz	ground_force_px	ground_force_py	ground_force_pz	l_ground_force_vx	l_ground_force_vy	l_ground_force_vz	l_ground_force_px	l_ground_force_py	l_ground_force_pz	ground_torque_x	ground_torque_y	ground_torque_z	l_ground_torque_x	l_ground_torque_y	l_ground_torque_z
0.291	-0.0	-0.0	-0.0	1.4213649034500122	50.74435043334961	-353.88629150390625	-17.127113342285156	-59.2874755859375	-412.1379699707031	-34.99039840698242	16.272300720214844	76.71571350097656	-0.0	-0.0	-0.0	63426.94921875	-3599.805908203125	-13963.388671875
0.2915	-0.0	-0.0	-0.0	1.5226199626922607	49.93113327026367	-349.7916259765625	-16.417465209960938	-59.55771255493164	-409.927490234375	-35.187705993652344	16.349912643432617	76.81061553955078	-0.0	-0.0	-0.0	63576.65234375	-3623.362060546875	-13705.9189453125
0.292	-0.0	-0.0	-0.0	2.218104362487793	49.53828048706055	-350.0254211425781	-16.080678939819336	-58.75784683227539	-408.7147216796875	-35.32381057739258	16.104564666748047	75.82976531982422	-0.0	-0.0	-0.0	63588.5234375	-4058.78125	-13612.490234375
0.2925	-0.0	-0.0	-0.0	1.8916984796524048	49.027809143066406	-349.5757751464844	-15.80858039855957	-58.55728149414063	-407.4599609375	-35.348411560058594	15.806604385375977	75.07960510253906	-0.0	-0.0	-0.0	63079.703125	-4315.21142578125	-13493.5908203125
0.293	-0.0	-0.0	-0.0	1.9626312255859373	49.033966064453125	-348.5643615722656	-15.772351264953612	-57.93902587890625	-406.5316467285156	-35.252830505371094	16.30318832397461	74.5476303100586	-0.0	-0.0	-0.0	63035.875	-4321.36279296875	-13408.466796875
0.2935	-0.0	-0.0	-0.0	2.362640619277954	48.868106842041016	-347.577880859375	-15.45395851135254	-57.59787368774414	-405.7141723632813	-35.33609771728516	16.085763931274414	76.48312377929688	-0.0	-0.0	-0.0	63166.57421875	-4207.6259765625	-13486.9814453125
0.294	-0.0	-0.0	-0.0	3.161940574645996	48.327274322509766	-344.571533203125	-15.34083366394043	-56.3858642578125	-404.7874145507813	-35.23409652709961	16.426612854003906	76.08283233642578	-0.0	-0.0	-0.0	63089.85546875	-4522.64111328125	-13352.5888671875
0.2945	-0.0	-0.0	-0.0	3.31323790550232	47.93349838256836	-346.54345703125	-15.233649253845217	-56.18484115600586	-405.3166198730469	-35.43184280395508	15.847305297851562	74.45120239257812	-0.0	-0.0	-0.0	63126.8359375	-4649.046875	-13251.1533203125
0.295	-0.0	-0.0	-0.0	4.078633785247803	47.27665328979492	-343.1112976074219	-14.820890426635742	-55.64266204833984	-405.66546630859375	-35.086700439453125	16.271778106689453	74.85208892822266	-0.0	-0.0	-0.0	63054.03125	-4796.66650390625	-13218.9638671875
0.2955	-0.0	-0.0	-0.0	3.86125373840332	47.42366790771485	-342.2563171386719	-14.20617961883545	-54.537879943847656	-403.3681640625	-35.086814880371094	15.795897483825684	74.1757583618164	-0.0	-0.0	-0.0	63132.6640625	-5150.09765625	-12995.470703125
0.296	-0.0	-0.0	-0.0	4.8236918449401855	47.41105651855469	-342.81256103515625	-13.908841133117676	-54.4248275756836	-404.9174499511719	-35.329708099365234	16.104564666748047	75.70540618896484	-0.0	-0.0	-0.0	63236.36328125	-5419.978515625	-12916.720703125
0.2965	-0.0	-0.0	-0.0	4.728157043457031	47.156341552734375	-341.1969909667969	-13.325483322143556	-53.93883895874024	-403.5450134277344	-35.010398864746094	15.94401741027832	75.53035736083984	-0.0	-0.0	-0.0	63335.83984375	-5396.2177734375	-12785.0234375
0.297	-0.0	-0.0	-0.0	4.638946533203125	46.54525375366211	-340.0362854003906	-12.913817405700684	-54.046573638916016	-402.1728515625	-35.33609771728516	16.348464965820312	75.83102416992188	-0.0	-0.0	-0.0	63081.40234375	-5510.84033203125	-12545.3671875
0.2975	-0.0	-0.0	-0.0	4.932218551635742	46.360618591308594	-338.37176513671875	-12.53990077972412	-53.63019180297852	-401.52435302734375	-35.444976806640625	16.277992248535156	76.9093246459961	-0.0	-0.0	-0.0	63364.421875	-5548.52001953125	-12487.7939453125
0.298	-0.0	-0.0	-0.0	4.575528621673584	45.69274520874024	-338.2953186035156	-12.298930168151855	-53.49755859375	-400.1779174804688	-35.2401237487793	16.117666244506836	76.00331115722656	-0.0	-0.0	-0.0	63304.171875	-5884.64501953125	-12377.3212890625
0.2985	-0.0	-0.0	-0.0	4.510819435119629	45.47594451904297	-335.5722961425781	-11.659582138061523	-52.74081802368164	-399.5808410644531	-35.24663543701172	16.07162094116211	74.35931396484375	-0.0	-0.0	-0.0	62936.5078125	-5949.044921875	-12236.8408203125
0.299	-0.0	-0.0	-0.0	3.5052552223205566	45.51311111450195	-334.0308837890625	-11.975955963134766	-52.21734619140625	-398.5593566894531	-35.137451171875	16.297731399536133	77.08047485351562	-0.0	-0.0	-0.0	63100.05859375	-6024.9541015625	-12046.4794921875
0.2995	-0.0	-0.0	-0.0	3.453012704849243	44.57828903198242	-333.29815673828125	-11.709823608398438	-51.89640045166016	-398.0838012695313	-35.33609771728516	16.07795524597168	76.83257293701172	-0.0	-0.0	-0.0	62323.41015625	-5889.74462890625	-12094.775390625
0.3	-0.0	-0.0	-0.0	3.1157805919647217	44.3803596496582	-331.5435485839844	-11.621112823486328	-51.7435417175293	-395.7169494628906	-35.17048645019531	16.077802658081055	76.93682098388672	-0.0	-0.0	-0.0	62393.9453125	-5848.5703125	-12030.9892578125
